Coordinates
version=1
nRows=8
nColumns=46
inDegrees=yes

Units are S.I. units (second, meters, Newtons, ...)
Angles are in degrees.

endheader
time	pelvis_tilt	pelvis_list	pelvis_rotation	pelvis_tx	pelvis_ty	pelvis_tz	bb_angle	bb_tx	bb_ty	bb_tz	hip_flexion_r	hip_adduction_r	hip_rotation_r	knee_angle_r	knee_angle_r_beta	ankle_angle_r	subtalar_angle_r	mtp_angle_r	crank_angle_r	hip_flexion_l	hip_adduction_l	hip_rotation_l	knee_angle_l	knee_angle_l_beta	ankle_angle_l	subtalar_angle_l	mtp_angle_l	crank_angle_l	lumbar_extension	lumbar_bending	lumbar_rotation	arm_flex_r	arm_add_r	arm_rot_r	elbow_flex_r	pro_sup_r	wrist_flex_r	wrist_dev_r	arm_flex_l	arm_add_l	arm_rot_l	elbow_flex_l	pro_sup_l	wrist_flex_l	wrist_dev_l
      7.50500000	    -34.36862308	     10.14764730	     16.07482546	      0.37476903	      1.15617329	     -0.24324658	      0.00000000	      0.50000000	      0.00000000	      0.25000000	     36.66254279	    -19.07446945	     -3.42215365	     40.51206229	      0.70706887	    -27.03120705	    -10.02144307	      0.00000000	      0.00000000	     83.99610157	      7.76685815	     -4.07280735	     95.32858345	      1.66379765	      1.14064142	      0.04026327	      0.00000000	      0.00000000	    -57.79861763	     -3.22500318	     -8.61615296	     14.78710050	    -34.12960320	     -0.28636572	    107.11238377	     51.06471363	      0.00000000	      0.00000000	     46.73528540	    -34.05914764	     29.57545063	    101.45856061	     52.61250696	      0.00000000	      0.00000000
      7.51000000	    -34.17124580	      9.84060868	     15.87613185	      0.37510790	      1.15782474	     -0.24141543	      0.00000000	      0.50000000	      0.00000000	      0.25000000	     37.58041614	    -18.37993694	     -2.45576762	     42.98623764	      0.75025138	    -27.67727575	    -10.87245194	      0.00000000	      0.00000000	     82.51691215	      7.05222468	     -4.14932940	     93.11083828	      1.62509070	      2.85045191	      1.04103780	      0.00000000	      0.00000000	    -58.03691038	     -3.07430055	    -11.30757826	     19.88944587	    -32.53693290	      5.44863927	    104.20647363	     51.10274693	      0.00000000	      0.00000000	     44.22086723	    -38.29521073	     27.25227491	    104.33553487	     52.71636548	      0.00000000	      0.00000000
      7.51500000	    -34.29066214	      9.37505456	     15.84925104	      0.37534384	      1.15861931	     -0.24072070	      0.00000000	      0.50000000	      0.00000000	      0.25000000	     38.84636677	    -17.81265244	     -1.74491027	     45.57812909	      0.79548842	    -28.02997187	    -11.26744332	      0.00000000	      0.00000000	     81.36669010	      6.60444679	     -4.24389799	     90.78665240	      1.58452600	      4.24926765	      1.09730824	      0.00000000	      0.00000000	    -57.97187783	     -2.88120735	    -11.11606532	     20.10654119	    -32.23969351	      5.53289691	    104.19824906	     51.10048125	      0.00000000	      0.00000000	     44.21756952	    -38.48957331	     27.06816728	    104.49764340	     52.70527198	      0.00000000	      0.00000000
      7.52000000	    -34.10257168	      8.80289817	     15.73171888	      0.37569747	      1.15962163	     -0.23984810	      0.00000000	      0.50000000	      0.00000000	      0.25000000	     39.75621901	    -17.05529983	     -1.26967046	     48.02373582	      0.83817231	    -28.50305633	    -11.54164645	      0.00000000	      0.00000000	     79.88236562	      6.03908681	     -4.18889606	     88.38769899	      1.54265637	      5.27481029	      1.01453464	      0.00000000	      0.00000000	    -58.08204484	     -2.60132305	    -10.82031984	     20.45830558	    -31.94489624	      5.66617444	    104.11331177	     51.09950241	      0.00000000	      0.00000000	     44.21073011	    -38.70655242	     26.92825919	    104.60018319	     52.70678366	      0.00000000	      0.00000000
      7.52500000	    -33.97204957	      8.18328031	     15.69068808	      0.37599969	      1.16043577	     -0.23917301	      0.00000000	      0.50000000	      0.00000000	      0.25000000	     40.64578725	    -16.25317329	     -0.78347303	     50.33328242	      0.87848150	    -28.89734208	    -11.77902975	      0.00000000	      0.00000000	     78.44518599	      5.63897537	     -4.08369645	     85.83754971	      1.49814786	      6.00939534	      0.74547612	      0.00000000	      0.00000000	    -58.18383751	     -2.23541754	    -10.47992797	     20.75039103	    -31.66788719	      5.81861554	    103.94862236	     51.08741142	      0.00000000	      0.00000000	     44.15175721	    -38.99594517	     26.80960192	    104.66201017	     52.70552263	      0.00000000	      0.00000000
      7.53000000	    -33.97039408	      7.99184535	     15.35778666	      0.37622979	      1.16091980	     -0.23810400	      0.00000000	      0.50000000	      0.00000000	      0.25000000	     41.80235511	    -15.60487638	      0.24361997	     52.73434317	      0.92038792	    -29.36891169	    -11.85086617	      0.00000000	      0.00000000	     76.94659964	      5.09962683	     -4.47918136	     83.14002487	      1.45106717	      6.61123935	      0.63771822	      0.00000000	      0.00000000	    -58.01765676	     -2.24866882	    -13.53113559	     25.80394940	    -29.39887337	     11.10686405	    100.09625017	     51.08785550	      0.00000000	      0.00000000	     39.82642900	    -42.71968074	     22.20931300	    107.45718569	     52.72051442	      0.00000000	      0.00000000
      7.53500000	    -33.78980541	      7.50592595	     15.14196154	      0.37650711	      1.16119730	     -0.23741306	      0.00000000	      0.50000000	      0.00000000	      0.25000000	     42.70168565	    -14.84630622	      0.69080517	     55.11779310	      0.96198697	    -29.36830843	    -12.06285149	      0.00000000	      0.00000000	     75.39281532	      4.61918184	     -4.50498549	     80.51539540	      1.40525875	      7.21387132	      0.91545240	      0.00000000	      0.00000000	    -58.05806193	     -2.09563115	    -13.16084686	     26.03821981	    -29.30709416	     11.09868629	     99.96170123	     51.06868704	      0.00000000	      0.00000000	     39.72399068	    -42.93872208	     22.09196211	    107.41997861	     52.70253345	      0.00000000	      0.00000000
      7.54000000	    -33.66129553	      7.22505685	     14.79531844	      0.37665252	      1.16122679	     -0.23655888	      0.00000000	      0.50000000	      0.00000000	      0.25000000	     43.69190252	    -14.16808763	      1.37103565	     57.52823982	      1.00405720	    -29.16124841	    -12.00613182	      0.00000000	      0.00000000	     73.81416714	      4.15793782	     -4.68620657	     77.80351863	      1.35792757	      7.50548898	      1.10067203	      0.00000000	      0.00000000	    -58.04516317	     -2.21041327	    -13.05528652	     26.38319330	    -29.02566776	     11.29051947	     99.57544424	     51.03362150	      0.00000000	      0.00000000	     39.54916145	    -43.43755677	     21.87302792	    107.41403096	     52.67997024	      0.00000000	      0.00000000
